<svg width="992" height="226" viewBox="0 0 992 226" fill="none" xmlns="http://www.w3.org/2000/svg">
<g clip-path="url(#clip0_103_2)">
<rect width="992" height="226" rx="24" fill="#171717"/>
<path d="M50.1196 -147.898L192.349 -217.901C203.423 -223.351 216.237 -214.742 215.376 -202.43L199.776 20.6585C199.379 26.3404 195.991 31.3826 190.88 33.8978L48.6508 103.901C37.5771 109.351 24.7633 100.742 25.6242 88.4295L41.2241 -134.659C41.6214 -140.34 45.0093 -145.383 50.1196 -147.898Z" stroke="#FF8126" stroke-width="4"/>
<path d="M704.154 107.782L835.257 18.6654C845.464 11.727 859.352 18.4694 860.213 30.7817L875.812 253.87C876.21 259.552 873.557 265.016 868.846 268.218L737.743 357.335C727.536 364.273 713.648 357.531 712.787 345.218L697.188 122.13C696.79 116.449 699.444 110.984 704.154 107.782Z" stroke="#FF8126" stroke-width="4"/>
<path d="M72.9902 -114.386L212.69 -189.311C223.567 -195.144 236.673 -186.987 236.243 -174.652L228.438 48.8445C228.239 54.5368 225.029 59.6942 220.01 62.3862L80.3099 137.311C69.4332 143.144 56.3267 134.987 56.7574 122.652L64.5621 -100.845C64.7609 -106.537 67.9708 -111.694 72.9902 -114.386Z" stroke="#FF8126" stroke-width="4"/>
<path d="M733.004 135.957L867.137 51.4701C877.58 44.8921 891.224 52.1151 891.654 64.4499L899.459 287.946C899.658 293.639 896.816 299.007 891.996 302.043L757.863 386.53C747.42 393.108 733.776 385.885 733.345 373.55L725.541 150.053C725.342 144.361 728.184 138.992 733.004 135.957Z" stroke="#FF8126" stroke-width="4"/>
<path d="M95.9503 -80.7669L232.95 -160.521C243.617 -166.731 257 -159.036 257 -146.693V76.9393C257 82.6351 253.972 87.9014 249.05 90.7669L112.05 170.521C101.383 176.731 88 169.036 88 156.693V-66.9393C88 -72.6351 91.0279 -77.9014 95.9503 -80.7669Z" stroke="#FF8126" stroke-width="4"/>
<path d="M761.95 164.233L898.95 84.479C909.617 78.2695 923 85.9642 923 98.3066V321.939C923 327.635 919.972 332.901 915.05 335.767L778.05 415.521C767.383 421.731 754 414.036 754 401.693V178.061C754 172.365 757.028 167.099 761.95 164.233Z" stroke="#FF8126" stroke-width="4"/>
<path d="M119.004 -47.0431L253.137 -131.53C263.58 -138.108 277.224 -130.885 277.654 -118.55L285.459 104.946C285.658 110.639 282.816 116.008 277.996 119.043L143.863 203.53C133.42 210.108 119.776 202.885 119.345 190.55L111.541 -32.9465C111.342 -38.6388 114.184 -44.0075 119.004 -47.0431Z" stroke="#FF8126" stroke-width="4"/>
<path d="M790.99 192.614L930.69 117.689C941.567 111.856 954.673 120.013 954.243 132.348L946.438 355.844C946.239 361.537 943.029 366.694 938.01 369.386L798.31 444.31C787.433 450.144 774.327 441.987 774.757 429.652L782.562 206.155C782.761 200.463 785.971 195.306 790.99 192.614Z" stroke="#FF8126" stroke-width="4"/>
<path d="M618.175 48.8305L645.381 74.7348L636.55 111.248L600.513 121.857L573.307 95.9531L582.138 59.4397L618.175 48.8305Z" stroke="url(#paint0_linear_103_2)" stroke-opacity="0.6" stroke-width="4" stroke-linejoin="round"/>
<path d="M383.288 124.44C379.704 124.44 376.504 123.928 373.688 122.904C370.936 121.88 368.376 120.248 366.008 118.008V123H351.992V52.056H366.488V81.048C368.536 79.256 371.032 77.88 373.976 76.92C376.92 75.96 380.024 75.48 383.288 75.48C388.088 75.48 392.312 76.536 395.96 78.648C399.672 80.696 402.552 83.576 404.6 87.288C406.648 91 407.672 95.256 407.672 100.056C407.672 104.92 406.648 109.208 404.6 112.92C402.552 116.568 399.672 119.416 395.96 121.464C392.312 123.448 388.088 124.44 383.288 124.44ZM379.64 113.208C383.544 113.208 386.712 112.024 389.144 109.656C391.64 107.224 392.888 104.024 392.888 100.056C392.888 96.088 391.64 92.888 389.144 90.456C386.712 88.024 383.544 86.808 379.64 86.808C376.632 86.808 373.912 87.64 371.48 89.304C369.112 90.904 367.448 93.016 366.488 95.64V104.376C367.512 107.064 369.208 109.208 371.576 110.808C373.944 112.408 376.632 113.208 379.64 113.208ZM415.836 76.92H429.852V83.544C431.708 81.304 434.3 79.608 437.628 78.456C440.956 77.24 444.732 76.632 448.956 76.632V87.672C444.54 87.672 440.636 88.344 437.244 89.688C433.916 91.032 431.612 93.08 430.332 95.832V123H415.836V76.92ZM472.984 124.44C466.712 124.44 462.008 122.744 458.872 119.352C455.736 115.896 454.168 111.32 454.168 105.624V76.92H468.664V104.088C468.664 110.104 471.448 113.112 477.016 113.112C479.448 113.112 481.72 112.536 483.832 111.384C485.944 110.232 487.704 108.504 489.112 106.2V76.92H503.608V123H489.592V117.432C487.544 119.8 485.048 121.56 482.104 122.712C479.224 123.864 476.184 124.44 472.984 124.44ZM533.007 124.44C527.631 124.44 523.535 122.968 520.719 120.024C517.967 117.016 516.591 112.856 516.591 107.544V87.384H509.871V76.92H516.591V63.096H531.087V76.92H541.935V87.384H531.087V105.624C531.087 108.312 531.599 110.264 532.623 111.48C533.647 112.632 535.471 113.208 538.095 113.208C540.207 113.208 542.223 112.696 544.143 111.672V122.52C541.199 123.8 537.487 124.44 533.007 124.44ZM577.332 124.44C568.5 124.44 561.556 122.328 556.5 118.104C551.444 113.816 548.916 107.832 548.916 100.152C548.916 92.536 551.156 86.52 555.636 82.104C560.18 77.688 566.644 75.48 575.028 75.48C580.532 75.48 585.204 76.504 589.044 78.552C592.884 80.6 595.796 83.448 597.78 87.096C599.764 90.68 600.756 94.744 600.756 99.288V105.144H562.74C563.764 111.032 569.268 113.976 579.252 113.976C582.196 113.976 585.236 113.72 588.372 113.208C591.508 112.696 594.228 111.992 596.532 111.096V121.272C594.292 122.232 591.412 123 587.892 123.576C584.372 124.152 580.852 124.44 577.332 124.44ZM587.028 95.736C586.836 92.664 585.684 90.296 583.572 88.632C581.46 86.904 578.548 86.04 574.836 86.04C571.188 86.04 568.308 86.904 566.196 88.632C564.084 90.36 562.932 92.728 562.74 95.736H587.028ZM608.773 76.92H622.789V83.544C624.645 81.304 627.237 79.608 630.565 78.456C633.893 77.24 637.669 76.632 641.893 76.632V87.672C637.477 87.672 633.573 88.344 630.181 89.688C626.853 91.032 624.549 93.08 623.269 95.832V123H608.773V76.92Z" fill="white"/>
<path d="M427.48 143.455V158H424.497L418.709 149.605H418.616V158H415.101V143.455H418.126L423.851 151.835H423.972V143.455H427.48ZM447.619 150.727C447.619 152.328 447.312 153.684 446.696 154.797C446.081 155.91 445.247 156.755 444.196 157.332C443.15 157.91 441.975 158.199 440.673 158.199C439.367 158.199 438.19 157.908 437.144 157.325C436.097 156.743 435.266 155.898 434.651 154.79C434.04 153.677 433.734 152.323 433.734 150.727C433.734 149.127 434.04 147.77 434.651 146.658C435.266 145.545 436.097 144.7 437.144 144.122C438.19 143.545 439.367 143.256 440.673 143.256C441.975 143.256 443.15 143.545 444.196 144.122C445.247 144.7 446.081 145.545 446.696 146.658C447.312 147.77 447.619 149.127 447.619 150.727ZM444.026 150.727C444.026 149.78 443.891 148.98 443.621 148.327C443.356 147.673 442.972 147.179 442.47 146.842C441.973 146.506 441.374 146.338 440.673 146.338C439.977 146.338 439.378 146.506 438.876 146.842C438.375 147.179 437.989 147.673 437.719 148.327C437.454 148.98 437.321 149.78 437.321 150.727C437.321 151.674 437.454 152.474 437.719 153.128C437.989 153.781 438.375 154.276 438.876 154.612C439.378 154.948 439.977 155.116 440.673 155.116C441.374 155.116 441.973 154.948 442.47 154.612C442.972 154.276 443.356 153.781 443.621 153.128C443.891 152.474 444.026 151.674 444.026 150.727ZM456.637 158L452.404 143.455H456.288L458.483 152.986H458.604L461.111 143.455H464.279L466.786 153.007H466.906L469.108 143.455H472.986L468.76 158H465.372L462.752 149.179H462.638L460.017 158H456.637ZM490.651 143.455V158H487.135V143.455H490.651ZM509.437 143.455V158H506.454L500.666 149.605H500.574V158H497.058V143.455H500.083L505.808 151.835H505.929V143.455H509.437ZM524.295 158V155.997L531.362 146.31H524.302V143.455H535.808V145.457L528.741 155.145H535.801V158H524.295ZM545.674 143.455V158H542.158V143.455H545.674ZM561.626 148.206C561.546 147.908 561.427 147.645 561.271 147.418C561.115 147.186 560.923 146.989 560.696 146.828C560.468 146.667 560.208 146.546 559.914 146.466C559.621 146.381 559.299 146.338 558.948 146.338C558.243 146.338 557.632 146.509 557.116 146.849C556.605 147.19 556.209 147.687 555.93 148.341C555.651 148.99 555.511 149.778 555.511 150.706C555.511 151.639 555.646 152.434 555.916 153.092C556.186 153.75 556.576 154.252 557.088 154.598C557.599 154.944 558.219 155.116 558.948 155.116C559.592 155.116 560.137 155.012 560.582 154.804C561.032 154.591 561.373 154.29 561.605 153.902C561.837 153.514 561.953 153.057 561.953 152.531L562.606 152.609H559.069V150.045H565.34V151.97C565.34 153.272 565.063 154.387 564.51 155.315C563.96 156.243 563.203 156.956 562.237 157.453C561.276 157.95 560.17 158.199 558.92 158.199C557.533 158.199 556.313 157.898 555.262 157.297C554.211 156.696 553.392 155.839 552.805 154.726C552.218 153.608 551.924 152.283 551.924 150.749C551.924 149.555 552.102 148.497 552.457 147.574C552.812 146.646 553.307 145.86 553.941 145.216C554.581 144.572 555.319 144.084 556.157 143.753C557 143.421 557.907 143.256 558.877 143.256C559.72 143.256 560.504 143.376 561.228 143.618C561.957 143.859 562.601 144.2 563.16 144.641C563.724 145.081 564.18 145.604 564.531 146.21C564.881 146.816 565.099 147.482 565.184 148.206H561.626ZM575.696 143.455L575.37 153.547H572.451L572.124 143.455H575.696ZM573.907 158.206C573.4 158.206 572.964 158.026 572.6 157.666C572.24 157.306 572.06 156.871 572.06 156.359C572.06 155.857 572.24 155.429 572.6 155.074C572.964 154.714 573.4 154.534 573.907 154.534C574.394 154.534 574.823 154.714 575.192 155.074C575.566 155.429 575.753 155.857 575.753 156.359C575.753 156.7 575.666 157.01 575.49 157.29C575.32 157.569 575.095 157.792 574.816 157.957C574.541 158.123 574.238 158.206 573.907 158.206Z" fill="#DADADA"/>
</g>
<defs>
<linearGradient id="paint0_linear_103_2" x1="639.5" y1="52" x2="581" y2="116.5" gradientUnits="userSpaceOnUse">
<stop stop-color="#FF8126"/>
<stop offset="1" stop-color="#F38C41"/>
</linearGradient>
<clipPath id="clip0_103_2">
<rect width="992" height="226" rx="24" fill="white"/>
</clipPath>
</defs>
</svg>
